<?xml version="1.0" encoding="UTF-8" standalone="no"?>
<!DOCTYPE svg PUBLIC "-//W3C//DTD SVG 1.1//EN"
 "http://www.w3.org/Graphics/SVG/1.1/DTD/svg11.dtd">
<!-- Generated by graphviz version 2.38.0 (20140413.2041)
 -->
<!-- Title: snakemake_dag Pages: 1 -->
<svg width="1490pt" height="630pt"
 viewBox="0.00 0.00 1490.00 630.00" xmlns="http://www.w3.org/2000/svg" xmlns:xlink="http://www.w3.org/1999/xlink">
<g id="graph0" class="graph" transform="scale(1 1) rotate(0) translate(4 626)">
<title>snakemake_dag</title>
<polygon fill="white" stroke="none" points="-4,4 -4,-626 1486,-626 1486,4 -4,4"/>
<!-- 0 -->
<g id="node1" class="node"><title>0</title>
<path fill="none" stroke="#9fd856" stroke-width="2" d="M804,-36C804,-36 774,-36 774,-36 768,-36 762,-30 762,-24 762,-24 762,-12 762,-12 762,-6 768,-0 774,-0 774,-0 804,-0 804,-0 810,-0 816,-6 816,-12 816,-12 816,-24 816,-24 816,-30 810,-36 804,-36"/>
<text text-anchor="middle" x="789" y="-15.5" font-family="sans" font-size="10.00">all</text>
</g>
<!-- 1 -->
<g id="node2" class="node"><title>1</title>
<path fill="none" stroke="#59d856" stroke-width="2" d="M132,-108C132,-108 28,-108 28,-108 22,-108 16,-102 16,-96 16,-96 16,-84 16,-84 16,-78 22,-72 28,-72 28,-72 132,-72 132,-72 138,-72 144,-78 144,-84 144,-84 144,-96 144,-96 144,-102 138,-108 132,-108"/>
<text text-anchor="middle" x="80" y="-87.5" font-family="sans" font-size="10.00">cytosinecoveragetiling</text>
</g>
<!-- 1&#45;&gt;0 -->
<g id="edge1" class="edge"><title>1&#45;&gt;0</title>
<path fill="none" stroke="grey" stroke-width="2" d="M144.387,-73.4697C147.291,-72.9385 150.172,-72.4447 153,-72 378.734,-36.504 653.528,-23.8025 751.834,-20.2057"/>
<polygon fill="grey" stroke="grey" stroke-width="2" points="751.997,-23.7022 761.866,-19.8481 751.747,-16.7066 751.997,-23.7022"/>
</g>
<!-- 2 -->
<g id="node3" class="node"><title>2</title>
<path fill="none" stroke="#59d856" stroke-width="2" d="M278,-108C278,-108 174,-108 174,-108 168,-108 162,-102 162,-96 162,-96 162,-84 162,-84 162,-78 168,-72 174,-72 174,-72 278,-72 278,-72 284,-72 290,-78 290,-84 290,-84 290,-96 290,-96 290,-102 284,-108 278,-108"/>
<text text-anchor="middle" x="226" y="-87.5" font-family="sans" font-size="10.00">cytosinecoveragetiling</text>
</g>
<!-- 2&#45;&gt;0 -->
<g id="edge2" class="edge"><title>2&#45;&gt;0</title>
<path fill="none" stroke="grey" stroke-width="2" d="M290.17,-74.451C294.84,-73.5655 299.486,-72.7364 304,-72 469.811,-44.9488 669.827,-27.9999 751.511,-21.7377"/>
<polygon fill="grey" stroke="grey" stroke-width="2" points="752.077,-25.2049 761.784,-20.9589 751.548,-18.2249 752.077,-25.2049"/>
</g>
<!-- 3 -->
<g id="node4" class="node"><title>3</title>
<path fill="none" stroke="#59d856" stroke-width="2" d="M424,-180C424,-180 320,-180 320,-180 314,-180 308,-174 308,-168 308,-168 308,-156 308,-156 308,-150 314,-144 320,-144 320,-144 424,-144 424,-144 430,-144 436,-150 436,-156 436,-156 436,-168 436,-168 436,-174 430,-180 424,-180"/>
<text text-anchor="middle" x="372" y="-159.5" font-family="sans" font-size="10.00">cytosinecoveragetiling</text>
</g>
<!-- 3&#45;&gt;0 -->
<g id="edge3" class="edge"><title>3&#45;&gt;0</title>
<path fill="none" stroke="grey" stroke-width="2" d="M355.568,-143.72C339.08,-124.279 318.571,-92.7165 337,-72 364.42,-41.1766 647.958,-25.3703 751.453,-20.5941"/>
<polygon fill="grey" stroke="grey" stroke-width="2" points="751.913,-24.0769 761.745,-20.1283 751.597,-17.0841 751.913,-24.0769"/>
</g>
<!-- 4 -->
<g id="node5" class="node"><title>4</title>
<path fill="none" stroke="#59d856" stroke-width="2" d="M1114,-180C1114,-180 1010,-180 1010,-180 1004,-180 998,-174 998,-168 998,-168 998,-156 998,-156 998,-150 1004,-144 1010,-144 1010,-144 1114,-144 1114,-144 1120,-144 1126,-150 1126,-156 1126,-156 1126,-168 1126,-168 1126,-174 1120,-180 1114,-180"/>
<text text-anchor="middle" x="1062" y="-159.5" font-family="sans" font-size="10.00">cytosinecoveragetiling</text>
</g>
<!-- 4&#45;&gt;0 -->
<g id="edge4" class="edge"><title>4&#45;&gt;0</title>
<path fill="none" stroke="grey" stroke-width="2" d="M1126.28,-149.158C1196.92,-135.838 1301.24,-115.134 1307,-108 1317.05,-95.5475 1317.72,-83.8755 1307,-72 1274.87,-36.4125 940.23,-23.4097 826.55,-19.9997"/>
<polygon fill="grey" stroke="grey" stroke-width="2" points="826.353,-16.4926 816.255,-19.6992 826.149,-23.4896 826.353,-16.4926"/>
</g>
<!-- 5 -->
<g id="node6" class="node"><title>5</title>
<path fill="none" stroke="#59d856" stroke-width="2" d="M1292,-180C1292,-180 1188,-180 1188,-180 1182,-180 1176,-174 1176,-168 1176,-168 1176,-156 1176,-156 1176,-150 1182,-144 1188,-144 1188,-144 1292,-144 1292,-144 1298,-144 1304,-150 1304,-156 1304,-156 1304,-168 1304,-168 1304,-174 1298,-180 1292,-180"/>
<text text-anchor="middle" x="1240" y="-159.5" font-family="sans" font-size="10.00">cytosinecoveragetiling</text>
</g>
<!-- 5&#45;&gt;0 -->
<g id="edge5" class="edge"><title>5&#45;&gt;0</title>
<path fill="none" stroke="grey" stroke-width="2" d="M1285.03,-143.86C1300.55,-135.527 1316.22,-123.814 1325,-108 1332.76,-94.0098 1335.74,-83.8573 1325,-72 1291.55,-35.082 942.39,-22.9017 826.298,-19.8561"/>
<polygon fill="grey" stroke="grey" stroke-width="2" points="826.209,-16.3528 816.124,-19.5971 826.031,-23.3505 826.209,-16.3528"/>
</g>
<!-- 6 -->
<g id="node7" class="node"><title>6</title>
<path fill="none" stroke="#59d856" stroke-width="2" d="M1454,-180C1454,-180 1350,-180 1350,-180 1344,-180 1338,-174 1338,-168 1338,-168 1338,-156 1338,-156 1338,-150 1344,-144 1350,-144 1350,-144 1454,-144 1454,-144 1460,-144 1466,-150 1466,-156 1466,-156 1466,-168 1466,-168 1466,-174 1460,-180 1454,-180"/>
<text text-anchor="middle" x="1402" y="-159.5" font-family="sans" font-size="10.00">cytosinecoveragetiling</text>
</g>
<!-- 6&#45;&gt;0 -->
<g id="edge6" class="edge"><title>6&#45;&gt;0</title>
<path fill="none" stroke="grey" stroke-width="2" d="M1395.94,-143.84C1387.58,-122.941 1370.34,-88.4041 1343,-72 1255.6,-19.5649 935.995,-17.5592 826.273,-18.4757"/>
<polygon fill="grey" stroke="grey" stroke-width="2" points="825.992,-14.9782 816.027,-18.5752 826.06,-21.9778 825.992,-14.9782"/>
</g>
<!-- 7 -->
<g id="node8" class="node"><title>7</title>
<path fill="none" stroke="#5682d8" stroke-width="2" d="M841.5,-108C841.5,-108 736.5,-108 736.5,-108 730.5,-108 724.5,-102 724.5,-96 724.5,-96 724.5,-84 724.5,-84 724.5,-78 730.5,-72 736.5,-72 736.5,-72 841.5,-72 841.5,-72 847.5,-72 853.5,-78 853.5,-84 853.5,-84 853.5,-96 853.5,-96 853.5,-102 847.5,-108 841.5,-108"/>
<text text-anchor="middle" x="789" y="-87.5" font-family="sans" font-size="10.00">ViewBS_MethCoverage</text>
</g>
<!-- 7&#45;&gt;0 -->
<g id="edge7" class="edge"><title>7&#45;&gt;0</title>
<path fill="none" stroke="grey" stroke-width="2" d="M789,-71.6966C789,-63.9827 789,-54.7125 789,-46.1124"/>
<polygon fill="grey" stroke="grey" stroke-width="2" points="792.5,-46.1043 789,-36.1043 785.5,-46.1044 792.5,-46.1043"/>
</g>
<!-- 8 -->
<g id="node9" class="node"><title>8</title>
<path fill="none" stroke="#b6d856" stroke-width="2" d="M990.5,-108C990.5,-108 883.5,-108 883.5,-108 877.5,-108 871.5,-102 871.5,-96 871.5,-96 871.5,-84 871.5,-84 871.5,-78 877.5,-72 883.5,-72 883.5,-72 990.5,-72 990.5,-72 996.5,-72 1002.5,-78 1002.5,-84 1002.5,-84 1002.5,-96 1002.5,-96 1002.5,-102 996.5,-108 990.5,-108"/>
<text text-anchor="middle" x="937" y="-87.5" font-family="sans" font-size="10.00">ViewBS_GlobalMethLev</text>
</g>
<!-- 8&#45;&gt;0 -->
<g id="edge8" class="edge"><title>8&#45;&gt;0</title>
<path fill="none" stroke="grey" stroke-width="2" d="M900.795,-71.8761C877.78,-60.9904 848.097,-46.9511 825.101,-36.0749"/>
<polygon fill="grey" stroke="grey" stroke-width="2" points="826.549,-32.8878 816.012,-31.7761 823.556,-39.2157 826.549,-32.8878"/>
</g>
<!-- 9 -->
<g id="node10" class="node"><title>9</title>
<path fill="none" stroke="#56d86b" stroke-width="2" d="M1127.5,-108C1127.5,-108 1032.5,-108 1032.5,-108 1026.5,-108 1020.5,-102 1020.5,-96 1020.5,-96 1020.5,-84 1020.5,-84 1020.5,-78 1026.5,-72 1032.5,-72 1032.5,-72 1127.5,-72 1127.5,-72 1133.5,-72 1139.5,-78 1139.5,-84 1139.5,-84 1139.5,-96 1139.5,-96 1139.5,-102 1133.5,-108 1127.5,-108"/>
<text text-anchor="middle" x="1080" y="-87.5" font-family="sans" font-size="10.00">ViewBS_MethLevDist</text>
</g>
<!-- 9&#45;&gt;0 -->
<g id="edge9" class="edge"><title>9&#45;&gt;0</title>
<path fill="none" stroke="grey" stroke-width="2" d="M1020.17,-74.2306C1017.07,-73.4742 1014,-72.727 1011,-72 945.938,-56.219 870.058,-38.1829 825.978,-27.7421"/>
<polygon fill="grey" stroke="grey" stroke-width="2" points="826.55,-24.2806 816.012,-25.3825 824.937,-31.0923 826.55,-24.2806"/>
</g>
<!-- 10 -->
<g id="node11" class="node"><title>10</title>
<path fill="none" stroke="#56c9d8" stroke-width="2" d="M442,-108C442,-108 358,-108 358,-108 352,-108 346,-102 346,-96 346,-96 346,-84 346,-84 346,-78 352,-72 358,-72 358,-72 442,-72 442,-72 448,-72 454,-78 454,-84 454,-84 454,-96 454,-96 454,-102 448,-108 442,-108"/>
<text text-anchor="middle" x="400" y="-93" font-family="sans" font-size="10.00">ViewBS_MethGeno</text>
<text text-anchor="middle" x="400" y="-82" font-family="sans" font-size="10.00">context: CG</text>
</g>
<!-- 10&#45;&gt;0 -->
<g id="edge10" class="edge"><title>10&#45;&gt;0</title>
<path fill="none" stroke="grey" stroke-width="2" d="M454.21,-73.9938C457.176,-73.2909 460.121,-72.6208 463,-72 566.64,-49.6536 690.631,-31.9391 751.51,-23.8228"/>
<polygon fill="grey" stroke="grey" stroke-width="2" points="752.321,-27.2462 761.776,-22.4657 751.403,-20.3066 752.321,-27.2462"/>
</g>
<!-- 11 -->
<g id="node12" class="node"><title>11</title>
<path fill="none" stroke="#56c9d8" stroke-width="2" d="M568,-108C568,-108 484,-108 484,-108 478,-108 472,-102 472,-96 472,-96 472,-84 472,-84 472,-78 478,-72 484,-72 484,-72 568,-72 568,-72 574,-72 580,-78 580,-84 580,-84 580,-96 580,-96 580,-102 574,-108 568,-108"/>
<text text-anchor="middle" x="526" y="-93" font-family="sans" font-size="10.00">ViewBS_MethGeno</text>
<text text-anchor="middle" x="526" y="-82" font-family="sans" font-size="10.00">context: CHG</text>
</g>
<!-- 11&#45;&gt;0 -->
<g id="edge11" class="edge"><title>11&#45;&gt;0</title>
<path fill="none" stroke="grey" stroke-width="2" d="M580.292,-74.3331C583.237,-73.5427 586.155,-72.7609 589,-72 645.822,-56.8047 711.78,-39.3643 751.938,-28.7678"/>
<polygon fill="grey" stroke="grey" stroke-width="2" points="753.04,-32.0971 761.816,-26.1621 751.254,-25.3286 753.04,-32.0971"/>
</g>
<!-- 12 -->
<g id="node13" class="node"><title>12</title>
<path fill="none" stroke="#56c9d8" stroke-width="2" d="M694,-108C694,-108 610,-108 610,-108 604,-108 598,-102 598,-96 598,-96 598,-84 598,-84 598,-78 604,-72 610,-72 610,-72 694,-72 694,-72 700,-72 706,-78 706,-84 706,-84 706,-96 706,-96 706,-102 700,-108 694,-108"/>
<text text-anchor="middle" x="652" y="-93" font-family="sans" font-size="10.00">ViewBS_MethGeno</text>
<text text-anchor="middle" x="652" y="-82" font-family="sans" font-size="10.00">context: CHH</text>
</g>
<!-- 12&#45;&gt;0 -->
<g id="edge12" class="edge"><title>12&#45;&gt;0</title>
<path fill="none" stroke="grey" stroke-width="2" d="M685.514,-71.8761C705.848,-61.4865 731.804,-48.2243 752.634,-37.5812"/>
<polygon fill="grey" stroke="grey" stroke-width="2" points="754.493,-40.5619 761.805,-32.8951 751.308,-34.3284 754.493,-40.5619"/>
</g>
<!-- 13 -->
<g id="node14" class="node"><title>13</title>
<path fill="none" stroke="#569ad8" stroke-width="2" d="M1286,-108C1286,-108 1170,-108 1170,-108 1164,-108 1158,-102 1158,-96 1158,-96 1158,-84 1158,-84 1158,-78 1164,-72 1170,-72 1170,-72 1286,-72 1286,-72 1292,-72 1298,-78 1298,-84 1298,-84 1298,-96 1298,-96 1298,-102 1292,-108 1286,-108"/>
<text text-anchor="middle" x="1228" y="-87.5" font-family="sans" font-size="10.00">ViewBS_BisNonConvRate</text>
</g>
<!-- 13&#45;&gt;0 -->
<g id="edge13" class="edge"><title>13&#45;&gt;0</title>
<path fill="none" stroke="grey" stroke-width="2" d="M1157.81,-73.8239C1154.5,-73.1897 1151.21,-72.5782 1148,-72 1031.11,-50.9742 891.712,-32.1758 826.33,-23.725"/>
<polygon fill="grey" stroke="grey" stroke-width="2" points="826.48,-20.2156 816.116,-22.4113 825.587,-27.1584 826.48,-20.2156"/>
</g>
<!-- 14 -->
<g id="node15" class="node"><title>14</title>
<path fill="none" stroke="#56b1d8" stroke-width="2" d="M148,-252C148,-252 12,-252 12,-252 6,-252 0,-246 0,-240 0,-240 0,-228 0,-228 0,-222 6,-216 12,-216 12,-216 148,-216 148,-216 154,-216 160,-222 160,-228 160,-228 160,-240 160,-240 160,-246 154,-252 148,-252"/>
<text text-anchor="middle" x="80" y="-237" font-family="sans" font-size="10.00">cContextCovFileFromGWCMR</text>
<text text-anchor="middle" x="80" y="-226" font-family="sans" font-size="10.00">context: CG</text>
</g>
<!-- 14&#45;&gt;1 -->
<g id="edge14" class="edge"><title>14&#45;&gt;1</title>
<path fill="none" stroke="grey" stroke-width="2" d="M80,-215.871C80,-191.67 80,-147.211 80,-118.393"/>
<polygon fill="grey" stroke="grey" stroke-width="2" points="83.5001,-118.189 80,-108.189 76.5001,-118.189 83.5001,-118.189"/>
</g>
<!-- 15 -->
<g id="node16" class="node"><title>15</title>
<path fill="none" stroke="#56b1d8" stroke-width="2" d="M326,-252C326,-252 190,-252 190,-252 184,-252 178,-246 178,-240 178,-240 178,-228 178,-228 178,-222 184,-216 190,-216 190,-216 326,-216 326,-216 332,-216 338,-222 338,-228 338,-228 338,-240 338,-240 338,-246 332,-252 326,-252"/>
<text text-anchor="middle" x="258" y="-237" font-family="sans" font-size="10.00">cContextCovFileFromGWCMR</text>
<text text-anchor="middle" x="258" y="-226" font-family="sans" font-size="10.00">context: CHG</text>
</g>
<!-- 15&#45;&gt;2 -->
<g id="edge15" class="edge"><title>15&#45;&gt;2</title>
<path fill="none" stroke="grey" stroke-width="2" d="M254.14,-215.871C248.662,-191.564 238.579,-146.819 232.087,-118.013"/>
<polygon fill="grey" stroke="grey" stroke-width="2" points="235.486,-117.175 229.874,-108.189 228.658,-118.714 235.486,-117.175"/>
</g>
<!-- 16 -->
<g id="node17" class="node"><title>16</title>
<path fill="none" stroke="#56b1d8" stroke-width="2" d="M504,-252C504,-252 368,-252 368,-252 362,-252 356,-246 356,-240 356,-240 356,-228 356,-228 356,-222 362,-216 368,-216 368,-216 504,-216 504,-216 510,-216 516,-222 516,-228 516,-228 516,-240 516,-240 516,-246 510,-252 504,-252"/>
<text text-anchor="middle" x="436" y="-237" font-family="sans" font-size="10.00">cContextCovFileFromGWCMR</text>
<text text-anchor="middle" x="436" y="-226" font-family="sans" font-size="10.00">context: CHH</text>
</g>
<!-- 16&#45;&gt;3 -->
<g id="edge16" class="edge"><title>16&#45;&gt;3</title>
<path fill="none" stroke="grey" stroke-width="2" d="M420.18,-215.697C412.43,-207.22 402.961,-196.864 394.476,-187.583"/>
<polygon fill="grey" stroke="grey" stroke-width="2" points="396.969,-185.123 387.638,-180.104 391.803,-189.846 396.969,-185.123"/>
</g>
<!-- 17 -->
<g id="node18" class="node"><title>17</title>
<path fill="none" stroke="#56b1d8" stroke-width="2" d="M1114,-252C1114,-252 978,-252 978,-252 972,-252 966,-246 966,-240 966,-240 966,-228 966,-228 966,-222 972,-216 978,-216 978,-216 1114,-216 1114,-216 1120,-216 1126,-222 1126,-228 1126,-228 1126,-240 1126,-240 1126,-246 1120,-252 1114,-252"/>
<text text-anchor="middle" x="1046" y="-237" font-family="sans" font-size="10.00">cContextCovFileFromGWCMR</text>
<text text-anchor="middle" x="1046" y="-226" font-family="sans" font-size="10.00">context: CG</text>
</g>
<!-- 17&#45;&gt;4 -->
<g id="edge17" class="edge"><title>17&#45;&gt;4</title>
<path fill="none" stroke="grey" stroke-width="2" d="M1049.96,-215.697C1051.72,-207.983 1053.84,-198.712 1055.8,-190.112"/>
<polygon fill="grey" stroke="grey" stroke-width="2" points="1059.27,-190.633 1058.09,-180.104 1052.45,-189.073 1059.27,-190.633"/>
</g>
<!-- 18 -->
<g id="node19" class="node"><title>18</title>
<path fill="none" stroke="#56b1d8" stroke-width="2" d="M1292,-252C1292,-252 1156,-252 1156,-252 1150,-252 1144,-246 1144,-240 1144,-240 1144,-228 1144,-228 1144,-222 1150,-216 1156,-216 1156,-216 1292,-216 1292,-216 1298,-216 1304,-222 1304,-228 1304,-228 1304,-240 1304,-240 1304,-246 1298,-252 1292,-252"/>
<text text-anchor="middle" x="1224" y="-237" font-family="sans" font-size="10.00">cContextCovFileFromGWCMR</text>
<text text-anchor="middle" x="1224" y="-226" font-family="sans" font-size="10.00">context: CHG</text>
</g>
<!-- 18&#45;&gt;5 -->
<g id="edge18" class="edge"><title>18&#45;&gt;5</title>
<path fill="none" stroke="grey" stroke-width="2" d="M1227.96,-215.697C1229.72,-207.983 1231.84,-198.712 1233.8,-190.112"/>
<polygon fill="grey" stroke="grey" stroke-width="2" points="1237.27,-190.633 1236.09,-180.104 1230.45,-189.073 1237.27,-190.633"/>
</g>
<!-- 19 -->
<g id="node20" class="node"><title>19</title>
<path fill="none" stroke="#56b1d8" stroke-width="2" d="M1470,-252C1470,-252 1334,-252 1334,-252 1328,-252 1322,-246 1322,-240 1322,-240 1322,-228 1322,-228 1322,-222 1328,-216 1334,-216 1334,-216 1470,-216 1470,-216 1476,-216 1482,-222 1482,-228 1482,-228 1482,-240 1482,-240 1482,-246 1476,-252 1470,-252"/>
<text text-anchor="middle" x="1402" y="-237" font-family="sans" font-size="10.00">cContextCovFileFromGWCMR</text>
<text text-anchor="middle" x="1402" y="-226" font-family="sans" font-size="10.00">context: CHH</text>
</g>
<!-- 19&#45;&gt;6 -->
<g id="edge19" class="edge"><title>19&#45;&gt;6</title>
<path fill="none" stroke="grey" stroke-width="2" d="M1402,-215.697C1402,-207.983 1402,-198.712 1402,-190.112"/>
<polygon fill="grey" stroke="grey" stroke-width="2" points="1405.5,-190.104 1402,-180.104 1398.5,-190.104 1405.5,-190.104"/>
</g>
<!-- 20 -->
<g id="node21" class="node"><title>20</title>
<path fill="none" stroke="#d8b456" stroke-width="2" d="M832,-180C832,-180 746,-180 746,-180 740,-180 734,-174 734,-168 734,-168 734,-156 734,-156 734,-150 740,-144 746,-144 746,-144 832,-144 832,-144 838,-144 844,-150 844,-156 844,-156 844,-168 844,-168 844,-174 838,-180 832,-180"/>
<text text-anchor="middle" x="789" y="-159.5" font-family="sans" font-size="10.00">ViewBS_samplefile</text>
</g>
<!-- 20&#45;&gt;7 -->
<g id="edge20" class="edge"><title>20&#45;&gt;7</title>
<path fill="none" stroke="grey" stroke-width="2" d="M789,-143.697C789,-135.983 789,-126.712 789,-118.112"/>
<polygon fill="grey" stroke="grey" stroke-width="2" points="792.5,-118.104 789,-108.104 785.5,-118.104 792.5,-118.104"/>
</g>
<!-- 20&#45;&gt;8 -->
<g id="edge24" class="edge"><title>20&#45;&gt;8</title>
<path fill="none" stroke="grey" stroke-width="2" d="M825.205,-143.876C845.258,-134.392 870.372,-122.513 891.714,-112.419"/>
<polygon fill="grey" stroke="grey" stroke-width="2" points="893.369,-115.508 900.913,-108.068 890.376,-109.18 893.369,-115.508"/>
</g>
<!-- 20&#45;&gt;9 -->
<g id="edge27" class="edge"><title>20&#45;&gt;9</title>
<path fill="none" stroke="grey" stroke-width="2" d="M844.126,-146.224C847.125,-145.462 850.098,-144.716 853,-144 919.922,-127.494 939.279,-124.827 1010.29,-108.142"/>
<polygon fill="grey" stroke="grey" stroke-width="2" points="1011.25,-111.512 1020.18,-105.807 1009.64,-104.699 1011.25,-111.512"/>
</g>
<!-- 20&#45;&gt;10 -->
<g id="edge30" class="edge"><title>20&#45;&gt;10</title>
<path fill="none" stroke="grey" stroke-width="2" d="M733.785,-146.083C730.483,-145.339 727.203,-144.637 724,-144 612.294,-121.77 579.536,-130.769 464.125,-108.08"/>
<polygon fill="grey" stroke="grey" stroke-width="2" points="464.685,-104.623 454.192,-106.09 463.31,-111.487 464.685,-104.623"/>
</g>
<!-- 20&#45;&gt;11 -->
<g id="edge34" class="edge"><title>20&#45;&gt;11</title>
<path fill="none" stroke="grey" stroke-width="2" d="M733.803,-146.445C695.907,-136.435 644.189,-122.742 590.065,-108.28"/>
<polygon fill="grey" stroke="grey" stroke-width="2" points="590.857,-104.869 580.292,-105.667 589.049,-111.631 590.857,-104.869"/>
</g>
<!-- 20&#45;&gt;12 -->
<g id="edge38" class="edge"><title>20&#45;&gt;12</title>
<path fill="none" stroke="grey" stroke-width="2" d="M755.486,-143.876C737.159,-134.512 714.264,-122.814 694.672,-112.803"/>
<polygon fill="grey" stroke="grey" stroke-width="2" points="696.14,-109.623 685.643,-108.19 692.955,-115.857 696.14,-109.623"/>
</g>
<!-- 20&#45;&gt;13 -->
<g id="edge42" class="edge"><title>20&#45;&gt;13</title>
<path fill="none" stroke="grey" stroke-width="2" d="M844.046,-145.861C847.066,-145.193 850.065,-144.566 853,-144 979.527,-119.597 1015.95,-129.244 1147.75,-107.936"/>
<polygon fill="grey" stroke="grey" stroke-width="2" points="1148.53,-111.355 1157.83,-106.277 1147.39,-104.448 1148.53,-111.355"/>
</g>
<!-- 21 -->
<g id="node22" class="node"><title>21</title>
<path fill="none" stroke="#56d89a" stroke-width="2" d="M591,-180C591,-180 521,-180 521,-180 515,-180 509,-174 509,-168 509,-168 509,-156 509,-156 509,-150 515,-144 521,-144 521,-144 591,-144 591,-144 597,-144 603,-150 603,-156 603,-156 603,-168 603,-168 603,-174 597,-180 591,-180"/>
<text text-anchor="middle" x="556" y="-159.5" font-family="sans" font-size="10.00">samtools_index</text>
</g>
<!-- 21&#45;&gt;7 -->
<g id="edge21" class="edge"><title>21&#45;&gt;7</title>
<path fill="none" stroke="grey" stroke-width="2" d="M603.151,-146.834C637.33,-136.566 684.029,-122.536 722.065,-111.109"/>
<polygon fill="grey" stroke="grey" stroke-width="2" points="723.469,-114.342 732.039,-108.113 721.455,-107.638 723.469,-114.342"/>
</g>
<!-- 21&#45;&gt;10 -->
<g id="edge31" class="edge"><title>21&#45;&gt;10</title>
<path fill="none" stroke="grey" stroke-width="2" d="M517.838,-143.876C496.607,-134.349 469.992,-122.407 447.431,-112.283"/>
<polygon fill="grey" stroke="grey" stroke-width="2" points="448.594,-108.969 438.038,-108.068 445.729,-115.356 448.594,-108.969"/>
</g>
<!-- 21&#45;&gt;11 -->
<g id="edge35" class="edge"><title>21&#45;&gt;11</title>
<path fill="none" stroke="grey" stroke-width="2" d="M548.584,-143.697C545.206,-135.813 541.13,-126.304 537.377,-117.546"/>
<polygon fill="grey" stroke="grey" stroke-width="2" points="540.487,-115.917 533.33,-108.104 534.053,-118.675 540.487,-115.917"/>
</g>
<!-- 21&#45;&gt;12 -->
<g id="edge39" class="edge"><title>21&#45;&gt;12</title>
<path fill="none" stroke="grey" stroke-width="2" d="M579.73,-143.697C591.937,-134.796 606.985,-123.823 620.184,-114.199"/>
<polygon fill="grey" stroke="grey" stroke-width="2" points="622.525,-116.824 628.543,-108.104 618.4,-111.168 622.525,-116.824"/>
</g>
<!-- 22 -->
<g id="node23" class="node"><title>22</title>
<path fill="none" stroke="#d88556" stroke-width="2" d="M703.5,-180C703.5,-180 664.5,-180 664.5,-180 658.5,-180 652.5,-174 652.5,-168 652.5,-168 652.5,-156 652.5,-156 652.5,-150 658.5,-144 664.5,-144 664.5,-144 703.5,-144 703.5,-144 709.5,-144 715.5,-150 715.5,-156 715.5,-156 715.5,-168 715.5,-168 715.5,-174 709.5,-180 703.5,-180"/>
<text text-anchor="middle" x="684" y="-159.5" font-family="sans" font-size="10.00">csigwcmr</text>
</g>
<!-- 22&#45;&gt;7 -->
<g id="edge22" class="edge"><title>22&#45;&gt;7</title>
<path fill="none" stroke="grey" stroke-width="2" d="M709.686,-143.876C723.288,-134.808 740.172,-123.552 754.861,-113.759"/>
<polygon fill="grey" stroke="grey" stroke-width="2" points="756.836,-116.649 763.215,-108.19 752.953,-110.825 756.836,-116.649"/>
</g>
<!-- 22&#45;&gt;8 -->
<g id="edge25" class="edge"><title>22&#45;&gt;8</title>
<path fill="none" stroke="grey" stroke-width="2" d="M715.609,-147.351C718.759,-146.155 721.927,-145.015 725,-144 750.245,-135.662 811.392,-120.567 861.563,-108.614"/>
<polygon fill="grey" stroke="grey" stroke-width="2" points="862.517,-111.985 871.437,-106.268 860.899,-105.174 862.517,-111.985"/>
</g>
<!-- 22&#45;&gt;9 -->
<g id="edge28" class="edge"><title>22&#45;&gt;9</title>
<path fill="none" stroke="grey" stroke-width="2" d="M715.947,-146.802C718.971,-145.748 722.021,-144.79 725,-144 845.692,-112.005 883.14,-130.372 1010.14,-108.004"/>
<polygon fill="grey" stroke="grey" stroke-width="2" points="1011.04,-111.399 1020.25,-106.171 1009.79,-104.511 1011.04,-111.399"/>
</g>
<!-- 22&#45;&gt;10 -->
<g id="edge32" class="edge"><title>22&#45;&gt;10</title>
<path fill="none" stroke="grey" stroke-width="2" d="M652.281,-153.51C603.754,-142.032 512.388,-120.346 464.157,-108.249"/>
<polygon fill="grey" stroke="grey" stroke-width="2" points="464.824,-104.807 454.271,-105.749 463.107,-111.594 464.824,-104.807"/>
</g>
<!-- 22&#45;&gt;11 -->
<g id="edge36" class="edge"><title>22&#45;&gt;11</title>
<path fill="none" stroke="grey" stroke-width="2" d="M652.406,-147.003C629.967,-137.061 599.431,-123.533 573.993,-112.263"/>
<polygon fill="grey" stroke="grey" stroke-width="2" points="575.082,-108.917 564.521,-108.066 572.246,-115.317 575.082,-108.917"/>
</g>
<!-- 22&#45;&gt;12 -->
<g id="edge40" class="edge"><title>22&#45;&gt;12</title>
<path fill="none" stroke="grey" stroke-width="2" d="M676.09,-143.697C672.447,-135.728 668.046,-126.1 664.006,-117.264"/>
<polygon fill="grey" stroke="grey" stroke-width="2" points="667.16,-115.744 659.819,-108.104 660.794,-118.654 667.16,-115.744"/>
</g>
<!-- 22&#45;&gt;13 -->
<g id="edge43" class="edge"><title>22&#45;&gt;13</title>
<path fill="none" stroke="grey" stroke-width="2" d="M715.914,-146.674C718.946,-145.646 722.005,-144.73 725,-144 905.184,-100.101 959.508,-134.445 1147.9,-107.865"/>
<polygon fill="grey" stroke="grey" stroke-width="2" points="1148.46,-111.322 1157.85,-106.423 1147.45,-104.394 1148.46,-111.322"/>
</g>
<!-- 23 -->
<g id="node24" class="node"><title>23</title>
<path fill="none" stroke="#d88556" stroke-width="2" d="M913.5,-180C913.5,-180 874.5,-180 874.5,-180 868.5,-180 862.5,-174 862.5,-168 862.5,-168 862.5,-156 862.5,-156 862.5,-150 868.5,-144 874.5,-144 874.5,-144 913.5,-144 913.5,-144 919.5,-144 925.5,-150 925.5,-156 925.5,-156 925.5,-168 925.5,-168 925.5,-174 919.5,-180 913.5,-180"/>
<text text-anchor="middle" x="894" y="-159.5" font-family="sans" font-size="10.00">csigwcmr</text>
</g>
<!-- 23&#45;&gt;7 -->
<g id="edge23" class="edge"><title>23&#45;&gt;7</title>
<path fill="none" stroke="grey" stroke-width="2" d="M868.314,-143.876C854.712,-134.808 837.828,-123.552 823.139,-113.759"/>
<polygon fill="grey" stroke="grey" stroke-width="2" points="825.047,-110.825 814.785,-108.19 821.164,-116.649 825.047,-110.825"/>
</g>
<!-- 23&#45;&gt;8 -->
<g id="edge26" class="edge"><title>23&#45;&gt;8</title>
<path fill="none" stroke="grey" stroke-width="2" d="M904.629,-143.697C909.628,-135.559 915.691,-125.689 921.212,-116.701"/>
<polygon fill="grey" stroke="grey" stroke-width="2" points="924.241,-118.457 926.493,-108.104 918.277,-114.793 924.241,-118.457"/>
</g>
<!-- 23&#45;&gt;9 -->
<g id="edge29" class="edge"><title>23&#45;&gt;9</title>
<path fill="none" stroke="grey" stroke-width="2" d="M925.552,-149.125C952.815,-138.865 992.829,-123.806 1025.3,-111.587"/>
<polygon fill="grey" stroke="grey" stroke-width="2" points="1026.55,-114.857 1034.67,-108.059 1024.08,-108.305 1026.55,-114.857"/>
</g>
<!-- 23&#45;&gt;10 -->
<g id="edge33" class="edge"><title>23&#45;&gt;10</title>
<path fill="none" stroke="grey" stroke-width="2" d="M862.08,-146.697C859.05,-145.664 855.992,-144.74 853,-144 687.16,-102.967 636.211,-137.457 464.058,-107.989"/>
<polygon fill="grey" stroke="grey" stroke-width="2" points="464.617,-104.534 454.162,-106.248 463.405,-111.428 464.617,-104.534"/>
</g>
<!-- 23&#45;&gt;11 -->
<g id="edge37" class="edge"><title>23&#45;&gt;11</title>
<path fill="none" stroke="grey" stroke-width="2" d="M862.498,-146.995C859.327,-145.871 856.124,-144.845 853,-144 741.818,-113.912 706.968,-130.504 590.234,-108.081"/>
<polygon fill="grey" stroke="grey" stroke-width="2" points="590.68,-104.602 580.191,-106.096 589.323,-111.469 590.68,-104.602"/>
</g>
<!-- 23&#45;&gt;12 -->
<g id="edge41" class="edge"><title>23&#45;&gt;12</title>
<path fill="none" stroke="grey" stroke-width="2" d="M862.38,-147.383C859.233,-146.181 856.068,-145.031 853,-144 795.848,-124.799 777.995,-124.263 716.169,-108.27"/>
<polygon fill="grey" stroke="grey" stroke-width="2" points="716.849,-104.83 706.288,-105.68 715.074,-111.601 716.849,-104.83"/>
</g>
<!-- 23&#45;&gt;13 -->
<g id="edge44" class="edge"><title>23&#45;&gt;13</title>
<path fill="none" stroke="grey" stroke-width="2" d="M925.687,-154.427C971.975,-144.817 1061.06,-126.289 1147.75,-108.048"/>
<polygon fill="grey" stroke="grey" stroke-width="2" points="1148.7,-111.426 1157.76,-105.941 1147.26,-104.576 1148.7,-111.426"/>
</g>
<!-- 24 -->
<g id="node25" class="node"><title>24</title>
<path fill="none" stroke="#88d856" stroke-width="2" d="M528.5,-324C528.5,-324 343.5,-324 343.5,-324 337.5,-324 331.5,-318 331.5,-312 331.5,-312 331.5,-300 331.5,-300 331.5,-294 337.5,-288 343.5,-288 343.5,-288 528.5,-288 528.5,-288 534.5,-288 540.5,-294 540.5,-300 540.5,-300 540.5,-312 540.5,-312 540.5,-318 534.5,-324 528.5,-324"/>
<text text-anchor="middle" x="436" y="-303.5" font-family="sans" font-size="10.00">genomewidecytosinemethylationreport</text>
</g>
<!-- 24&#45;&gt;14 -->
<g id="edge45" class="edge"><title>24&#45;&gt;14</title>
<path fill="none" stroke="grey" stroke-width="2" d="M349.368,-287.966C295.02,-277.279 225.08,-263.527 170.088,-252.714"/>
<polygon fill="grey" stroke="grey" stroke-width="2" points="170.489,-249.226 160.001,-250.731 169.138,-256.094 170.489,-249.226"/>
</g>
<!-- 24&#45;&gt;15 -->
<g id="edge46" class="edge"><title>24&#45;&gt;15</title>
<path fill="none" stroke="grey" stroke-width="2" d="M392.456,-287.876C367.798,-278.179 336.777,-265.98 310.746,-255.743"/>
<polygon fill="grey" stroke="grey" stroke-width="2" points="311.989,-252.471 301.402,-252.068 309.428,-258.985 311.989,-252.471"/>
</g>
<!-- 24&#45;&gt;16 -->
<g id="edge47" class="edge"><title>24&#45;&gt;16</title>
<path fill="none" stroke="grey" stroke-width="2" d="M436,-287.697C436,-279.983 436,-270.712 436,-262.112"/>
<polygon fill="grey" stroke="grey" stroke-width="2" points="439.5,-262.104 436,-252.104 432.5,-262.104 439.5,-262.104"/>
</g>
<!-- 26 -->
<g id="node27" class="node"><title>26</title>
<path fill="none" stroke="#ced856" stroke-width="2" d="M710,-252C710,-252 658,-252 658,-252 652,-252 646,-246 646,-240 646,-240 646,-228 646,-228 646,-222 652,-216 658,-216 658,-216 710,-216 710,-216 716,-216 722,-222 722,-228 722,-228 722,-240 722,-240 722,-246 716,-252 710,-252"/>
<text text-anchor="middle" x="684" y="-231.5" font-family="sans" font-size="10.00">bgzipgwcmr</text>
</g>
<!-- 24&#45;&gt;26 -->
<g id="edge57" class="edge"><title>24&#45;&gt;26</title>
<path fill="none" stroke="grey" stroke-width="2" d="M496.351,-287.966C539.307,-275.841 596.246,-259.769 636.094,-248.522"/>
<polygon fill="grey" stroke="grey" stroke-width="2" points="637.164,-251.857 645.837,-245.772 635.263,-245.12 637.164,-251.857"/>
</g>
<!-- 25 -->
<g id="node26" class="node"><title>25</title>
<path fill="none" stroke="#88d856" stroke-width="2" d="M1138.5,-324C1138.5,-324 953.5,-324 953.5,-324 947.5,-324 941.5,-318 941.5,-312 941.5,-312 941.5,-300 941.5,-300 941.5,-294 947.5,-288 953.5,-288 953.5,-288 1138.5,-288 1138.5,-288 1144.5,-288 1150.5,-294 1150.5,-300 1150.5,-300 1150.5,-312 1150.5,-312 1150.5,-318 1144.5,-324 1138.5,-324"/>
<text text-anchor="middle" x="1046" y="-303.5" font-family="sans" font-size="10.00">genomewidecytosinemethylationreport</text>
</g>
<!-- 25&#45;&gt;17 -->
<g id="edge48" class="edge"><title>25&#45;&gt;17</title>
<path fill="none" stroke="grey" stroke-width="2" d="M1046,-287.697C1046,-279.983 1046,-270.712 1046,-262.112"/>
<polygon fill="grey" stroke="grey" stroke-width="2" points="1049.5,-262.104 1046,-252.104 1042.5,-262.104 1049.5,-262.104"/>
</g>
<!-- 25&#45;&gt;18 -->
<g id="edge49" class="edge"><title>25&#45;&gt;18</title>
<path fill="none" stroke="grey" stroke-width="2" d="M1089.54,-287.876C1114.2,-278.179 1145.22,-265.98 1171.25,-255.743"/>
<polygon fill="grey" stroke="grey" stroke-width="2" points="1172.57,-258.985 1180.6,-252.068 1170.01,-252.471 1172.57,-258.985"/>
</g>
<!-- 25&#45;&gt;19 -->
<g id="edge50" class="edge"><title>25&#45;&gt;19</title>
<path fill="none" stroke="grey" stroke-width="2" d="M1132.63,-287.966C1186.98,-277.279 1256.92,-263.527 1311.91,-252.714"/>
<polygon fill="grey" stroke="grey" stroke-width="2" points="1312.86,-256.094 1322,-250.731 1311.51,-249.226 1312.86,-256.094"/>
</g>
<!-- 27 -->
<g id="node28" class="node"><title>27</title>
<path fill="none" stroke="#ced856" stroke-width="2" d="M920,-252C920,-252 868,-252 868,-252 862,-252 856,-246 856,-240 856,-240 856,-228 856,-228 856,-222 862,-216 868,-216 868,-216 920,-216 920,-216 926,-216 932,-222 932,-228 932,-228 932,-240 932,-240 932,-246 926,-252 920,-252"/>
<text text-anchor="middle" x="894" y="-231.5" font-family="sans" font-size="10.00">bgzipgwcmr</text>
</g>
<!-- 25&#45;&gt;27 -->
<g id="edge58" class="edge"><title>25&#45;&gt;27</title>
<path fill="none" stroke="grey" stroke-width="2" d="M1008.82,-287.876C988.13,-278.349 962.198,-266.407 940.215,-256.283"/>
<polygon fill="grey" stroke="grey" stroke-width="2" points="941.61,-253.072 931.063,-252.068 938.682,-259.43 941.61,-253.072"/>
</g>
<!-- 26&#45;&gt;20 -->
<g id="edge51" class="edge"><title>26&#45;&gt;20</title>
<path fill="none" stroke="grey" stroke-width="2" d="M709.686,-215.876C723.288,-206.808 740.172,-195.552 754.861,-185.759"/>
<polygon fill="grey" stroke="grey" stroke-width="2" points="756.836,-188.649 763.215,-180.19 752.953,-182.825 756.836,-188.649"/>
</g>
<!-- 26&#45;&gt;22 -->
<g id="edge53" class="edge"><title>26&#45;&gt;22</title>
<path fill="none" stroke="grey" stroke-width="2" d="M684,-215.697C684,-207.983 684,-198.712 684,-190.112"/>
<polygon fill="grey" stroke="grey" stroke-width="2" points="687.5,-190.104 684,-180.104 680.5,-190.104 687.5,-190.104"/>
</g>
<!-- 27&#45;&gt;20 -->
<g id="edge52" class="edge"><title>27&#45;&gt;20</title>
<path fill="none" stroke="grey" stroke-width="2" d="M868.314,-215.876C854.712,-206.808 837.828,-195.552 823.139,-185.759"/>
<polygon fill="grey" stroke="grey" stroke-width="2" points="825.047,-182.825 814.785,-180.19 821.164,-188.649 825.047,-182.825"/>
</g>
<!-- 27&#45;&gt;23 -->
<g id="edge54" class="edge"><title>27&#45;&gt;23</title>
<path fill="none" stroke="grey" stroke-width="2" d="M894,-215.697C894,-207.983 894,-198.712 894,-190.112"/>
<polygon fill="grey" stroke="grey" stroke-width="2" points="897.5,-190.104 894,-180.104 890.5,-190.104 897.5,-190.104"/>
</g>
<!-- 28 -->
<g id="node29" class="node"><title>28</title>
<path fill="none" stroke="#566bd8" stroke-width="2" d="M528,-396C528,-396 382,-396 382,-396 376,-396 370,-390 370,-384 370,-384 370,-372 370,-372 370,-366 376,-360 382,-360 382,-360 528,-360 528,-360 534,-360 540,-366 540,-372 540,-372 540,-384 540,-384 540,-390 534,-396 528,-396"/>
<text text-anchor="middle" x="455" y="-375.5" font-family="sans" font-size="10.00">bismark_methylation_extractor</text>
</g>
<!-- 28&#45;&gt;24 -->
<g id="edge55" class="edge"><title>28&#45;&gt;24</title>
<path fill="none" stroke="grey" stroke-width="2" d="M450.303,-359.697C448.187,-351.898 445.638,-342.509 443.282,-333.829"/>
<polygon fill="grey" stroke="grey" stroke-width="2" points="446.64,-332.838 440.643,-324.104 439.884,-334.672 446.64,-332.838"/>
</g>
<!-- 29 -->
<g id="node30" class="node"><title>29</title>
<path fill="none" stroke="#566bd8" stroke-width="2" d="M1080,-396C1080,-396 934,-396 934,-396 928,-396 922,-390 922,-384 922,-384 922,-372 922,-372 922,-366 928,-360 934,-360 934,-360 1080,-360 1080,-360 1086,-360 1092,-366 1092,-372 1092,-372 1092,-384 1092,-384 1092,-390 1086,-396 1080,-396"/>
<text text-anchor="middle" x="1007" y="-375.5" font-family="sans" font-size="10.00">bismark_methylation_extractor</text>
</g>
<!-- 29&#45;&gt;25 -->
<g id="edge56" class="edge"><title>29&#45;&gt;25</title>
<path fill="none" stroke="grey" stroke-width="2" d="M1016.64,-359.697C1021.13,-351.644 1026.56,-341.894 1031.52,-332.982"/>
<polygon fill="grey" stroke="grey" stroke-width="2" points="1034.66,-334.544 1036.47,-324.104 1028.55,-331.137 1034.66,-334.544"/>
</g>
<!-- 30 -->
<g id="node31" class="node"><title>30</title>
<path fill="none" stroke="#56d8b1" stroke-width="2" d="M579.5,-468C579.5,-468 484.5,-468 484.5,-468 478.5,-468 472.5,-462 472.5,-456 472.5,-456 472.5,-444 472.5,-444 472.5,-438 478.5,-432 484.5,-432 484.5,-432 579.5,-432 579.5,-432 585.5,-432 591.5,-438 591.5,-444 591.5,-444 591.5,-456 591.5,-456 591.5,-462 585.5,-468 579.5,-468"/>
<text text-anchor="middle" x="532" y="-447.5" font-family="sans" font-size="10.00">deduplicate_bismark</text>
</g>
<!-- 30&#45;&gt;28 -->
<g id="edge59" class="edge"><title>30&#45;&gt;28</title>
<path fill="none" stroke="grey" stroke-width="2" d="M512.966,-431.697C503.455,-423.05 491.793,-412.449 481.43,-403.027"/>
<polygon fill="grey" stroke="grey" stroke-width="2" points="483.569,-400.241 473.815,-396.104 478.86,-405.421 483.569,-400.241"/>
</g>
<!-- 31 -->
<g id="node32" class="node"><title>31</title>
<path fill="none" stroke="#56d8b1" stroke-width="2" d="M1034.5,-468C1034.5,-468 939.5,-468 939.5,-468 933.5,-468 927.5,-462 927.5,-456 927.5,-456 927.5,-444 927.5,-444 927.5,-438 933.5,-432 939.5,-432 939.5,-432 1034.5,-432 1034.5,-432 1040.5,-432 1046.5,-438 1046.5,-444 1046.5,-444 1046.5,-456 1046.5,-456 1046.5,-462 1040.5,-468 1034.5,-468"/>
<text text-anchor="middle" x="987" y="-447.5" font-family="sans" font-size="10.00">deduplicate_bismark</text>
</g>
<!-- 31&#45;&gt;29 -->
<g id="edge60" class="edge"><title>31&#45;&gt;29</title>
<path fill="none" stroke="grey" stroke-width="2" d="M991.944,-431.697C994.172,-423.898 996.855,-414.509 999.335,-405.829"/>
<polygon fill="grey" stroke="grey" stroke-width="2" points="1002.73,-406.681 1002.11,-396.104 996,-404.758 1002.73,-406.681"/>
</g>
<!-- 32 -->
<g id="node33" class="node"><title>32</title>
<path fill="none" stroke="#70d856" stroke-width="2" d="M575.5,-545C575.5,-545 488.5,-545 488.5,-545 482.5,-545 476.5,-539 476.5,-533 476.5,-533 476.5,-516 476.5,-516 476.5,-510 482.5,-504 488.5,-504 488.5,-504 575.5,-504 575.5,-504 581.5,-504 587.5,-510 587.5,-516 587.5,-516 587.5,-533 587.5,-533 587.5,-539 581.5,-545 575.5,-545"/>
<text text-anchor="middle" x="532" y="-533" font-family="sans" font-size="10.00">bismark_alignment</text>
<text text-anchor="middle" x="532" y="-522" font-family="sans" font-size="10.00">sample: A</text>
<text text-anchor="middle" x="532" y="-511" font-family="sans" font-size="10.00">unit: 1</text>
</g>
<!-- 32&#45;&gt;30 -->
<g id="edge61" class="edge"><title>32&#45;&gt;30</title>
<path fill="none" stroke="grey" stroke-width="2" d="M532,-503.689C532,-495.907 532,-486.842 532,-478.447"/>
<polygon fill="grey" stroke="grey" stroke-width="2" points="535.5,-478.319 532,-468.319 528.5,-478.32 535.5,-478.319"/>
</g>
<!-- 33 -->
<g id="node34" class="node"><title>33</title>
<path fill="none" stroke="#70d856" stroke-width="2" d="M704.5,-545C704.5,-545 617.5,-545 617.5,-545 611.5,-545 605.5,-539 605.5,-533 605.5,-533 605.5,-516 605.5,-516 605.5,-510 611.5,-504 617.5,-504 617.5,-504 704.5,-504 704.5,-504 710.5,-504 716.5,-510 716.5,-516 716.5,-516 716.5,-533 716.5,-533 716.5,-539 710.5,-545 704.5,-545"/>
<text text-anchor="middle" x="661" y="-533" font-family="sans" font-size="10.00">bismark_alignment</text>
<text text-anchor="middle" x="661" y="-522" font-family="sans" font-size="10.00">sample: A</text>
<text text-anchor="middle" x="661" y="-511" font-family="sans" font-size="10.00">unit: 2</text>
</g>
<!-- 33&#45;&gt;30 -->
<g id="edge62" class="edge"><title>33&#45;&gt;30</title>
<path fill="none" stroke="grey" stroke-width="2" d="M626.091,-503.88C609.189,-494.381 588.826,-482.937 571.372,-473.128"/>
<polygon fill="grey" stroke="grey" stroke-width="2" points="572.977,-470.015 562.544,-468.166 569.547,-476.117 572.977,-470.015"/>
</g>
<!-- 34 -->
<g id="node35" class="node"><title>34</title>
<path fill="none" stroke="#70d856" stroke-width="2" d="M966.5,-542.5C966.5,-542.5 879.5,-542.5 879.5,-542.5 873.5,-542.5 867.5,-536.5 867.5,-530.5 867.5,-530.5 867.5,-518.5 867.5,-518.5 867.5,-512.5 873.5,-506.5 879.5,-506.5 879.5,-506.5 966.5,-506.5 966.5,-506.5 972.5,-506.5 978.5,-512.5 978.5,-518.5 978.5,-518.5 978.5,-530.5 978.5,-530.5 978.5,-536.5 972.5,-542.5 966.5,-542.5"/>
<text text-anchor="middle" x="923" y="-522" font-family="sans" font-size="10.00">bismark_alignment</text>
</g>
<!-- 34&#45;&gt;31 -->
<g id="edge63" class="edge"><title>34&#45;&gt;31</title>
<path fill="none" stroke="grey" stroke-width="2" d="M938.167,-506.319C946.217,-497.199 956.254,-485.829 965.131,-475.773"/>
<polygon fill="grey" stroke="grey" stroke-width="2" points="967.948,-477.871 971.942,-468.058 962.7,-473.239 967.948,-477.871"/>
</g>
<!-- 35 -->
<g id="node36" class="node"><title>35</title>
<path fill="none" stroke="#70d856" stroke-width="2" d="M837.5,-542.5C837.5,-542.5 750.5,-542.5 750.5,-542.5 744.5,-542.5 738.5,-536.5 738.5,-530.5 738.5,-530.5 738.5,-518.5 738.5,-518.5 738.5,-512.5 744.5,-506.5 750.5,-506.5 750.5,-506.5 837.5,-506.5 837.5,-506.5 843.5,-506.5 849.5,-512.5 849.5,-518.5 849.5,-518.5 849.5,-530.5 849.5,-530.5 849.5,-536.5 843.5,-542.5 837.5,-542.5"/>
<text text-anchor="middle" x="794" y="-522" font-family="sans" font-size="10.00">bismark_alignment</text>
</g>
<!-- 35&#45;&gt;31 -->
<g id="edge64" class="edge"><title>35&#45;&gt;31</title>
<path fill="none" stroke="grey" stroke-width="2" d="M839.738,-506.319C867.379,-495.935 902.788,-482.634 931.957,-471.677"/>
<polygon fill="grey" stroke="grey" stroke-width="2" points="933.46,-474.851 941.59,-468.058 930.998,-468.298 933.46,-474.851"/>
</g>
<!-- 36 -->
<g id="node37" class="node"><title>36</title>
<path fill="none" stroke="#70d856" stroke-width="2" d="M1095.5,-542.5C1095.5,-542.5 1008.5,-542.5 1008.5,-542.5 1002.5,-542.5 996.5,-536.5 996.5,-530.5 996.5,-530.5 996.5,-518.5 996.5,-518.5 996.5,-512.5 1002.5,-506.5 1008.5,-506.5 1008.5,-506.5 1095.5,-506.5 1095.5,-506.5 1101.5,-506.5 1107.5,-512.5 1107.5,-518.5 1107.5,-518.5 1107.5,-530.5 1107.5,-530.5 1107.5,-536.5 1101.5,-542.5 1095.5,-542.5"/>
<text text-anchor="middle" x="1052" y="-522" font-family="sans" font-size="10.00">bismark_alignment</text>
</g>
<!-- 36&#45;&gt;31 -->
<g id="edge65" class="edge"><title>36&#45;&gt;31</title>
<path fill="none" stroke="grey" stroke-width="2" d="M1036.6,-506.319C1028.42,-497.199 1018.23,-485.829 1009.21,-475.773"/>
<polygon fill="grey" stroke="grey" stroke-width="2" points="1011.58,-473.167 1002.29,-468.058 1006.36,-477.84 1011.58,-473.167"/>
</g>
<!-- 37 -->
<g id="node38" class="node"><title>37</title>
<path fill="none" stroke="#56d882" stroke-width="2" stroke-dasharray="5,2" d="M730.5,-619.5C730.5,-619.5 591.5,-619.5 591.5,-619.5 585.5,-619.5 579.5,-613.5 579.5,-607.5 579.5,-607.5 579.5,-595.5 579.5,-595.5 579.5,-589.5 585.5,-583.5 591.5,-583.5 591.5,-583.5 730.5,-583.5 730.5,-583.5 736.5,-583.5 742.5,-589.5 742.5,-595.5 742.5,-595.5 742.5,-607.5 742.5,-607.5 742.5,-613.5 736.5,-619.5 730.5,-619.5"/>
<text text-anchor="middle" x="661" y="-599" font-family="sans" font-size="10.00">bismark_genome_preparation</text>
</g>
<!-- 37&#45;&gt;32 -->
<g id="edge66" class="edge"><title>37&#45;&gt;32</title>
<path fill="none" stroke="grey" stroke-width="2" d="M631.728,-583.481C614.786,-573.631 593.167,-561.062 574.391,-550.146"/>
<polygon fill="grey" stroke="grey" stroke-width="2" points="576.118,-547.102 565.714,-545.101 572.6,-553.153 576.118,-547.102"/>
</g>
<!-- 37&#45;&gt;33 -->
<g id="edge67" class="edge"><title>37&#45;&gt;33</title>
<path fill="none" stroke="grey" stroke-width="2" d="M661,-583.481C661,-575.102 661,-564.755 661,-555.132"/>
<polygon fill="grey" stroke="grey" stroke-width="2" points="664.5,-555.101 661,-545.101 657.5,-555.101 664.5,-555.101"/>
</g>
<!-- 37&#45;&gt;34 -->
<g id="edge69" class="edge"><title>37&#45;&gt;34</title>
<path fill="none" stroke="grey" stroke-width="2" d="M722.744,-583.393C759.255,-573.21 806.639,-559.88 857.478,-545.131"/>
<polygon fill="grey" stroke="grey" stroke-width="2" points="858.723,-548.414 867.349,-542.262 856.77,-541.692 858.723,-548.414"/>
</g>
<!-- 37&#45;&gt;35 -->
<g id="edge71" class="edge"><title>37&#45;&gt;35</title>
<path fill="none" stroke="grey" stroke-width="2" d="M691.18,-583.481C710.007,-572.865 734.436,-559.089 754.759,-547.629"/>
<polygon fill="grey" stroke="grey" stroke-width="2" points="756.488,-550.672 763.479,-542.711 753.05,-544.574 756.488,-550.672"/>
</g>
<!-- 37&#45;&gt;36 -->
<g id="edge73" class="edge"><title>37&#45;&gt;36</title>
<path fill="none" stroke="grey" stroke-width="2" d="M738.877,-583.496C743.311,-582.626 747.709,-581.788 752,-581 855.926,-561.922 883.924,-568.237 987,-545 987.104,-544.977 987.208,-544.953 987.313,-544.929"/>
<polygon fill="grey" stroke="grey" stroke-width="2" points="988.284,-548.295 997.175,-542.534 986.632,-541.493 988.284,-548.295"/>
</g>
<!-- 38 -->
<g id="node39" class="node"><title>38</title>
<path fill="none" stroke="#d8cb56" stroke-width="2" d="M963,-622C963,-622 889,-622 889,-622 883,-622 877,-616 877,-610 877,-610 877,-593 877,-593 877,-587 883,-581 889,-581 889,-581 963,-581 963,-581 969,-581 975,-587 975,-593 975,-593 975,-610 975,-610 975,-616 969,-622 963,-622"/>
<text text-anchor="middle" x="926" y="-610" font-family="sans" font-size="10.00">trimmomatic_pe</text>
<text text-anchor="middle" x="926" y="-599" font-family="sans" font-size="10.00">sample: B</text>
<text text-anchor="middle" x="926" y="-588" font-family="sans" font-size="10.00">unit: 1</text>
</g>
<!-- 38&#45;&gt;34 -->
<g id="edge68" class="edge"><title>38&#45;&gt;34</title>
<path fill="none" stroke="grey" stroke-width="2" d="M925.212,-580.795C924.872,-572.31 924.47,-562.243 924.102,-553.039"/>
<polygon fill="grey" stroke="grey" stroke-width="2" points="927.588,-552.629 923.691,-542.777 920.594,-552.909 927.588,-552.629"/>
</g>
<!-- 39 -->
<g id="node40" class="node"><title>39</title>
<path fill="none" stroke="#d8cb56" stroke-width="2" d="M847,-622C847,-622 773,-622 773,-622 767,-622 761,-616 761,-610 761,-610 761,-593 761,-593 761,-587 767,-581 773,-581 773,-581 847,-581 847,-581 853,-581 859,-587 859,-593 859,-593 859,-610 859,-610 859,-616 853,-622 847,-622"/>
<text text-anchor="middle" x="810" y="-610" font-family="sans" font-size="10.00">trimmomatic_pe</text>
<text text-anchor="middle" x="810" y="-599" font-family="sans" font-size="10.00">sample: B</text>
<text text-anchor="middle" x="810" y="-588" font-family="sans" font-size="10.00">unit: 2</text>
</g>
<!-- 39&#45;&gt;35 -->
<g id="edge70" class="edge"><title>39&#45;&gt;35</title>
<path fill="none" stroke="grey" stroke-width="2" d="M805.796,-580.795C803.966,-572.218 801.792,-562.024 799.811,-552.739"/>
<polygon fill="grey" stroke="grey" stroke-width="2" points="803.195,-551.827 797.686,-542.777 796.349,-553.287 803.195,-551.827"/>
</g>
<!-- 40 -->
<g id="node41" class="node"><title>40</title>
<path fill="none" stroke="#d8cb56" stroke-width="2" d="M1089,-622C1089,-622 1015,-622 1015,-622 1009,-622 1003,-616 1003,-610 1003,-610 1003,-593 1003,-593 1003,-587 1009,-581 1015,-581 1015,-581 1089,-581 1089,-581 1095,-581 1101,-587 1101,-593 1101,-593 1101,-610 1101,-610 1101,-616 1095,-622 1089,-622"/>
<text text-anchor="middle" x="1052" y="-610" font-family="sans" font-size="10.00">trimmomatic_pe</text>
<text text-anchor="middle" x="1052" y="-599" font-family="sans" font-size="10.00">sample: B</text>
<text text-anchor="middle" x="1052" y="-588" font-family="sans" font-size="10.00">unit: 3</text>
</g>
<!-- 40&#45;&gt;36 -->
<g id="edge72" class="edge"><title>40&#45;&gt;36</title>
<path fill="none" stroke="grey" stroke-width="2" d="M1052,-580.795C1052,-572.31 1052,-562.243 1052,-553.039"/>
<polygon fill="grey" stroke="grey" stroke-width="2" points="1055.5,-552.777 1052,-542.777 1048.5,-552.777 1055.5,-552.777"/>
</g>
</g>
</svg>
