<?xml version="1.0" encoding="UTF-8" standalone="no"?>
<!DOCTYPE svg PUBLIC "-//W3C//DTD SVG 1.1//EN"
 "http://www.w3.org/Graphics/SVG/1.1/DTD/svg11.dtd">
<!-- Generated by graphviz version 2.38.0 (20140413.2041)
 -->
<!-- Title: snakemake_dag Pages: 1 -->
<svg width="1003pt" height="620pt"
 viewBox="0.00 0.00 1002.50 620.00" xmlns="http://www.w3.org/2000/svg" xmlns:xlink="http://www.w3.org/1999/xlink">
<g id="graph0" class="graph" transform="scale(1 1) rotate(0) translate(4 616)">
<title>snakemake_dag</title>
<polygon fill="white" stroke="none" points="-4,4 -4,-616 998.5,-616 998.5,4 -4,4"/>
<!-- 0 -->
<g id="node1" class="node"><title>0</title>
<path fill="none" stroke="#d85656" stroke-width="2" d="M581.5,-36C581.5,-36 551.5,-36 551.5,-36 545.5,-36 539.5,-30 539.5,-24 539.5,-24 539.5,-12 539.5,-12 539.5,-6 545.5,-0 551.5,-0 551.5,-0 581.5,-0 581.5,-0 587.5,-0 593.5,-6 593.5,-12 593.5,-12 593.5,-24 593.5,-24 593.5,-30 587.5,-36 581.5,-36"/>
<text text-anchor="middle" x="566.5" y="-15.5" font-family="sans" font-size="10.00">all</text>
</g>
<!-- 1 -->
<g id="node2" class="node"><title>1</title>
<path fill="none" stroke="#56d882" stroke-width="2" d="M856,-180C856,-180 757,-180 757,-180 751,-180 745,-174 745,-168 745,-168 745,-156 745,-156 745,-150 751,-144 757,-144 757,-144 856,-144 856,-144 862,-144 868,-150 868,-156 868,-156 868,-168 868,-168 868,-174 862,-180 856,-180"/>
<text text-anchor="middle" x="806.5" y="-159.5" font-family="sans" font-size="10.00">cytosinecoveragetiling</text>
</g>
<!-- 1&#45;&gt;0 -->
<g id="edge5" class="edge"><title>1&#45;&gt;0</title>
<path fill="none" stroke="grey" stroke-width="2" d="M796.031,-143.752C783.037,-123.739 759.065,-91.0559 730.5,-72 691.587,-46.0414 639.043,-32.0226 604.027,-25.0414"/>
<polygon fill="grey" stroke="grey" stroke-width="2" points="604.234,-21.5183 593.757,-23.0953 602.93,-28.396 604.234,-21.5183"/>
</g>
<!-- 2 -->
<g id="node3" class="node"><title>2</title>
<path fill="none" stroke="#56d8a9" stroke-width="2" d="M698.5,-252C698.5,-252 498.5,-252 498.5,-252 492.5,-252 486.5,-246 486.5,-240 486.5,-240 486.5,-228 486.5,-228 486.5,-222 492.5,-216 498.5,-216 498.5,-216 698.5,-216 698.5,-216 704.5,-216 710.5,-222 710.5,-228 710.5,-228 710.5,-240 710.5,-240 710.5,-246 704.5,-252 698.5,-252"/>
<text text-anchor="middle" x="598.5" y="-231.5" font-family="sans" font-size="10.00">cContextCovFileWithStrandInfoFromGWCMR</text>
</g>
<!-- 2&#45;&gt;0 -->
<g id="edge1" class="edge"><title>2&#45;&gt;0</title>
<path fill="none" stroke="grey" stroke-width="2" d="M622.524,-216C661.513,-186.286 730.911,-123.191 696.5,-72 675.915,-41.3781 634.215,-28.4389 603.572,-22.9774"/>
<polygon fill="grey" stroke="grey" stroke-width="2" points="604.076,-19.5137 593.65,-21.3971 602.975,-26.4265 604.076,-19.5137"/>
</g>
<!-- 3 -->
<g id="node4" class="node"><title>3</title>
<path fill="none" stroke="#569ad8" stroke-width="2" d="M918.5,-468C918.5,-468 826.5,-468 826.5,-468 820.5,-468 814.5,-462 814.5,-456 814.5,-456 814.5,-444 814.5,-444 814.5,-438 820.5,-432 826.5,-432 826.5,-432 918.5,-432 918.5,-432 924.5,-432 930.5,-438 930.5,-444 930.5,-444 930.5,-456 930.5,-456 930.5,-462 924.5,-468 918.5,-468"/>
<text text-anchor="middle" x="872.5" y="-447.5" font-family="sans" font-size="10.00">deduplicate_bismark</text>
</g>
<!-- 3&#45;&gt;0 -->
<g id="edge2" class="edge"><title>3&#45;&gt;0</title>
<path fill="none" stroke="grey" stroke-width="2" d="M880.595,-431.949C892.283,-405.72 912.5,-353.614 912.5,-307 912.5,-307 912.5,-307 912.5,-161 912.5,-94.794 692.946,-43.9596 603.626,-26.0181"/>
<polygon fill="grey" stroke="grey" stroke-width="2" points="604.139,-22.552 593.65,-24.0428 602.78,-29.4187 604.139,-22.552"/>
</g>
<!-- 15 -->
<g id="node16" class="node"><title>15</title>
<path fill="none" stroke="#56d8d8" stroke-width="2" d="M786.5,-396C786.5,-396 644.5,-396 644.5,-396 638.5,-396 632.5,-390 632.5,-384 632.5,-384 632.5,-372 632.5,-372 632.5,-366 638.5,-360 644.5,-360 644.5,-360 786.5,-360 786.5,-360 792.5,-360 798.5,-366 798.5,-372 798.5,-372 798.5,-384 798.5,-384 798.5,-390 792.5,-396 786.5,-396"/>
<text text-anchor="middle" x="715.5" y="-375.5" font-family="sans" font-size="10.00">bismark_methylation_extractor</text>
</g>
<!-- 3&#45;&gt;15 -->
<g id="edge30" class="edge"><title>3&#45;&gt;15</title>
<path fill="none" stroke="grey" stroke-width="2" d="M834.093,-431.876C812.631,-422.307 785.702,-410.3 762.932,-400.148"/>
<polygon fill="grey" stroke="grey" stroke-width="2" points="764.34,-396.944 753.782,-396.068 761.49,-403.337 764.34,-396.944"/>
</g>
<!-- 4 -->
<g id="node5" class="node"><title>4</title>
<path fill="none" stroke="#566bd8" stroke-width="2" d="M551,-108C551,-108 448,-108 448,-108 442,-108 436,-102 436,-96 436,-96 436,-84 436,-84 436,-78 442,-72 448,-72 448,-72 551,-72 551,-72 557,-72 563,-78 563,-84 563,-84 563,-96 563,-96 563,-102 557,-108 551,-108"/>
<text text-anchor="middle" x="499.5" y="-87.5" font-family="sans" font-size="10.00">ViewBS_MethCoverage</text>
</g>
<!-- 4&#45;&gt;0 -->
<g id="edge8" class="edge"><title>4&#45;&gt;0</title>
<path fill="none" stroke="grey" stroke-width="2" d="M516.062,-71.6966C524.175,-63.2198 534.088,-52.8636 542.971,-43.5826"/>
<polygon fill="grey" stroke="grey" stroke-width="2" points="545.743,-45.7486 550.129,-36.1043 540.686,-40.9084 545.743,-45.7486"/>
</g>
<!-- 5 -->
<g id="node6" class="node"><title>5</title>
<path fill="none" stroke="#d89556" stroke-width="2" d="M271.5,-108C271.5,-108 167.5,-108 167.5,-108 161.5,-108 155.5,-102 155.5,-96 155.5,-96 155.5,-84 155.5,-84 155.5,-78 161.5,-72 167.5,-72 167.5,-72 271.5,-72 271.5,-72 277.5,-72 283.5,-78 283.5,-84 283.5,-84 283.5,-96 283.5,-96 283.5,-102 277.5,-108 271.5,-108"/>
<text text-anchor="middle" x="219.5" y="-87.5" font-family="sans" font-size="10.00">ViewBS_GlobalMethLev</text>
</g>
<!-- 5&#45;&gt;0 -->
<g id="edge4" class="edge"><title>5&#45;&gt;0</title>
<path fill="none" stroke="grey" stroke-width="2" d="M283.564,-73.937C286.582,-73.2726 289.573,-72.6237 292.5,-72 376.909,-54.0146 476.508,-35.3984 529.293,-25.7366"/>
<polygon fill="grey" stroke="grey" stroke-width="2" points="529.999,-29.1657 539.208,-23.9265 528.742,-22.2795 529.999,-29.1657"/>
</g>
<!-- 6 -->
<g id="node7" class="node"><title>6</title>
<path fill="none" stroke="#97d856" stroke-width="2" d="M405.5,-108C405.5,-108 313.5,-108 313.5,-108 307.5,-108 301.5,-102 301.5,-96 301.5,-96 301.5,-84 301.5,-84 301.5,-78 307.5,-72 313.5,-72 313.5,-72 405.5,-72 405.5,-72 411.5,-72 417.5,-78 417.5,-84 417.5,-84 417.5,-96 417.5,-96 417.5,-102 411.5,-108 405.5,-108"/>
<text text-anchor="middle" x="359.5" y="-87.5" font-family="sans" font-size="10.00">ViewBS_MethLevDist</text>
</g>
<!-- 6&#45;&gt;0 -->
<g id="edge6" class="edge"><title>6&#45;&gt;0</title>
<path fill="none" stroke="grey" stroke-width="2" d="M409.873,-71.9656C446.856,-59.4594 496.255,-42.7545 529.608,-31.4754"/>
<polygon fill="grey" stroke="grey" stroke-width="2" points="531.061,-34.6789 539.413,-28.1598 528.819,-28.0478 531.061,-34.6789"/>
</g>
<!-- 7 -->
<g id="node8" class="node"><title>7</title>
<path fill="none" stroke="#80d856" stroke-width="2" d="M676,-108C676,-108 593,-108 593,-108 587,-108 581,-102 581,-96 581,-96 581,-84 581,-84 581,-78 587,-72 593,-72 593,-72 676,-72 676,-72 682,-72 688,-78 688,-84 688,-84 688,-96 688,-96 688,-102 682,-108 676,-108"/>
<text text-anchor="middle" x="634.5" y="-87.5" font-family="sans" font-size="10.00">ViewBS_MethGeno</text>
</g>
<!-- 7&#45;&gt;0 -->
<g id="edge7" class="edge"><title>7&#45;&gt;0</title>
<path fill="none" stroke="grey" stroke-width="2" d="M617.691,-71.6966C609.374,-63.135 599.195,-52.6562 590.11,-43.3045"/>
<polygon fill="grey" stroke="grey" stroke-width="2" points="592.594,-40.8384 583.116,-36.1043 587.573,-45.7159 592.594,-40.8384"/>
</g>
<!-- 8 -->
<g id="node9" class="node"><title>8</title>
<path fill="none" stroke="#56d86b" stroke-width="2" d="M125,-108C125,-108 12,-108 12,-108 6,-108 0,-102 0,-96 0,-96 0,-84 0,-84 0,-78 6,-72 12,-72 12,-72 125,-72 125,-72 131,-72 137,-78 137,-84 137,-84 137,-96 137,-96 137,-102 131,-108 125,-108"/>
<text text-anchor="middle" x="68.5" y="-87.5" font-family="sans" font-size="10.00">ViewBS_BisNonConvRate</text>
</g>
<!-- 8&#45;&gt;0 -->
<g id="edge3" class="edge"><title>8&#45;&gt;0</title>
<path fill="none" stroke="grey" stroke-width="2" d="M137.338,-73.6485C140.43,-73.0689 143.495,-72.516 146.5,-72 286.995,-47.8744 455.696,-29.8822 529.21,-22.5786"/>
<polygon fill="grey" stroke="grey" stroke-width="2" points="529.743,-26.0432 539.351,-21.5792 529.056,-19.0769 529.743,-26.0432"/>
</g>
<!-- 9 -->
<g id="node10" class="node"><title>9</title>
<path fill="none" stroke="#d86e56" stroke-width="2" d="M872,-252C872,-252 741,-252 741,-252 735,-252 729,-246 729,-240 729,-240 729,-228 729,-228 729,-222 735,-216 741,-216 741,-216 872,-216 872,-216 878,-216 884,-222 884,-228 884,-228 884,-240 884,-240 884,-246 878,-252 872,-252"/>
<text text-anchor="middle" x="806.5" y="-231.5" font-family="sans" font-size="10.00">cContextCovFileFromGWCMR</text>
</g>
<!-- 9&#45;&gt;1 -->
<g id="edge9" class="edge"><title>9&#45;&gt;1</title>
<path fill="none" stroke="grey" stroke-width="2" d="M806.5,-215.697C806.5,-207.983 806.5,-198.712 806.5,-190.112"/>
<polygon fill="grey" stroke="grey" stroke-width="2" points="810,-190.104 806.5,-180.104 803,-190.104 810,-190.104"/>
</g>
<!-- 10 -->
<g id="node11" class="node"><title>10</title>
<path fill="none" stroke="#afd856" stroke-width="2" d="M727,-324C727,-324 548,-324 548,-324 542,-324 536,-318 536,-312 536,-312 536,-300 536,-300 536,-294 542,-288 548,-288 548,-288 727,-288 727,-288 733,-288 739,-294 739,-300 739,-300 739,-312 739,-312 739,-318 733,-324 727,-324"/>
<text text-anchor="middle" x="637.5" y="-303.5" font-family="sans" font-size="10.00">genomewidecytosinemethylationreport</text>
</g>
<!-- 10&#45;&gt;2 -->
<g id="edge10" class="edge"><title>10&#45;&gt;2</title>
<path fill="none" stroke="grey" stroke-width="2" d="M627.86,-287.697C623.373,-279.644 617.941,-269.894 612.976,-260.982"/>
<polygon fill="grey" stroke="grey" stroke-width="2" points="615.954,-259.137 608.03,-252.104 609.839,-262.544 615.954,-259.137"/>
</g>
<!-- 10&#45;&gt;9 -->
<g id="edge24" class="edge"><title>10&#45;&gt;9</title>
<path fill="none" stroke="grey" stroke-width="2" d="M678.842,-287.876C702.048,-278.264 731.19,-266.193 755.77,-256.013"/>
<polygon fill="grey" stroke="grey" stroke-width="2" points="757.393,-259.129 765.292,-252.068 754.714,-252.662 757.393,-259.129"/>
</g>
<!-- 18 -->
<g id="node19" class="node"><title>18</title>
<path fill="none" stroke="#56c1d8" stroke-width="2" d="M456.5,-252C456.5,-252 406.5,-252 406.5,-252 400.5,-252 394.5,-246 394.5,-240 394.5,-240 394.5,-228 394.5,-228 394.5,-222 400.5,-216 406.5,-216 406.5,-216 456.5,-216 456.5,-216 462.5,-216 468.5,-222 468.5,-228 468.5,-228 468.5,-240 468.5,-240 468.5,-246 462.5,-252 456.5,-252"/>
<text text-anchor="middle" x="431.5" y="-231.5" font-family="sans" font-size="10.00">bgzipgwcmr</text>
</g>
<!-- 10&#45;&gt;18 -->
<g id="edge31" class="edge"><title>10&#45;&gt;18</title>
<path fill="none" stroke="grey" stroke-width="2" d="M584.377,-287.906C555.418,-278.471 518.747,-266.338 478.17,-252.185"/>
<polygon fill="grey" stroke="grey" stroke-width="2" points="479.213,-248.842 468.618,-248.841 476.9,-255.449 479.213,-248.842"/>
</g>
<!-- 11 -->
<g id="node12" class="node"><title>11</title>
<path fill="none" stroke="#68d856" stroke-width="2" d="M914.5,-540C914.5,-540 830.5,-540 830.5,-540 824.5,-540 818.5,-534 818.5,-528 818.5,-528 818.5,-516 818.5,-516 818.5,-510 824.5,-504 830.5,-504 830.5,-504 914.5,-504 914.5,-504 920.5,-504 926.5,-510 926.5,-516 926.5,-516 926.5,-528 926.5,-528 926.5,-534 920.5,-540 914.5,-540"/>
<text text-anchor="middle" x="872.5" y="-519.5" font-family="sans" font-size="10.00">bismark_alignment</text>
</g>
<!-- 11&#45;&gt;3 -->
<g id="edge11" class="edge"><title>11&#45;&gt;3</title>
<path fill="none" stroke="grey" stroke-width="2" d="M872.5,-503.697C872.5,-495.983 872.5,-486.712 872.5,-478.112"/>
<polygon fill="grey" stroke="grey" stroke-width="2" points="876,-478.104 872.5,-468.104 869,-478.104 876,-478.104"/>
</g>
<!-- 12 -->
<g id="node13" class="node"><title>12</title>
<path fill="none" stroke="#56d89a" stroke-width="2" d="M487.5,-180C487.5,-180 405.5,-180 405.5,-180 399.5,-180 393.5,-174 393.5,-168 393.5,-168 393.5,-156 393.5,-156 393.5,-150 399.5,-144 405.5,-144 405.5,-144 487.5,-144 487.5,-144 493.5,-144 499.5,-150 499.5,-156 499.5,-156 499.5,-168 499.5,-168 499.5,-174 493.5,-180 487.5,-180"/>
<text text-anchor="middle" x="446.5" y="-159.5" font-family="sans" font-size="10.00">ViewBS_samplefile</text>
</g>
<!-- 12&#45;&gt;4 -->
<g id="edge12" class="edge"><title>12&#45;&gt;4</title>
<path fill="none" stroke="grey" stroke-width="2" d="M459.601,-143.697C465.891,-135.389 473.547,-125.277 480.465,-116.141"/>
<polygon fill="grey" stroke="grey" stroke-width="2" points="483.304,-118.19 486.55,-108.104 477.723,-113.964 483.304,-118.19"/>
</g>
<!-- 12&#45;&gt;5 -->
<g id="edge15" class="edge"><title>12&#45;&gt;5</title>
<path fill="none" stroke="grey" stroke-width="2" d="M393.279,-144.588C360.837,-134.584 319.14,-121.726 284.722,-111.113"/>
<polygon fill="grey" stroke="grey" stroke-width="2" points="285.346,-107.642 274.758,-108.04 283.283,-114.331 285.346,-107.642"/>
</g>
<!-- 12&#45;&gt;6 -->
<g id="edge17" class="edge"><title>12&#45;&gt;6</title>
<path fill="none" stroke="grey" stroke-width="2" d="M424.994,-143.697C414.037,-134.881 400.554,-124.032 388.675,-114.474"/>
<polygon fill="grey" stroke="grey" stroke-width="2" points="390.744,-111.646 380.758,-108.104 386.355,-117.1 390.744,-111.646"/>
</g>
<!-- 12&#45;&gt;7 -->
<g id="edge19" class="edge"><title>12&#45;&gt;7</title>
<path fill="none" stroke="grey" stroke-width="2" d="M492.49,-143.876C518.648,-134.137 551.585,-121.872 579.152,-111.608"/>
<polygon fill="grey" stroke="grey" stroke-width="2" points="580.509,-114.838 588.659,-108.068 578.067,-108.278 580.509,-114.838"/>
</g>
<!-- 12&#45;&gt;8 -->
<g id="edge22" class="edge"><title>12&#45;&gt;8</title>
<path fill="none" stroke="grey" stroke-width="2" d="M393.326,-146.199C390.01,-145.416 386.715,-144.676 383.5,-144 282.393,-122.75 253.032,-127.06 147.469,-108.102"/>
<polygon fill="grey" stroke="grey" stroke-width="2" points="147.821,-104.608 137.355,-106.257 146.565,-111.495 147.821,-104.608"/>
</g>
<!-- 13 -->
<g id="node14" class="node"><title>13</title>
<path fill="none" stroke="#c6d856" stroke-width="2" d="M640.5,-180C640.5,-180 572.5,-180 572.5,-180 566.5,-180 560.5,-174 560.5,-168 560.5,-168 560.5,-156 560.5,-156 560.5,-150 566.5,-144 572.5,-144 572.5,-144 640.5,-144 640.5,-144 646.5,-144 652.5,-150 652.5,-156 652.5,-156 652.5,-168 652.5,-168 652.5,-174 646.5,-180 640.5,-180"/>
<text text-anchor="middle" x="606.5" y="-159.5" font-family="sans" font-size="10.00">samtools_index</text>
</g>
<!-- 13&#45;&gt;4 -->
<g id="edge13" class="edge"><title>13&#45;&gt;4</title>
<path fill="none" stroke="grey" stroke-width="2" d="M580.325,-143.876C566.464,-134.808 549.259,-123.552 534.289,-113.759"/>
<polygon fill="grey" stroke="grey" stroke-width="2" points="536.06,-110.735 525.776,-108.19 532.228,-116.593 536.06,-110.735"/>
</g>
<!-- 13&#45;&gt;7 -->
<g id="edge20" class="edge"><title>13&#45;&gt;7</title>
<path fill="none" stroke="grey" stroke-width="2" d="M613.421,-143.697C616.575,-135.813 620.378,-126.304 623.881,-117.546"/>
<polygon fill="grey" stroke="grey" stroke-width="2" points="627.194,-118.689 627.658,-108.104 620.695,-116.089 627.194,-118.689"/>
</g>
<!-- 14 -->
<g id="node15" class="node"><title>14</title>
<path fill="none" stroke="#d8c356" stroke-width="2" d="M363,-180C363,-180 326,-180 326,-180 320,-180 314,-174 314,-168 314,-168 314,-156 314,-156 314,-150 320,-144 326,-144 326,-144 363,-144 363,-144 369,-144 375,-150 375,-156 375,-156 375,-168 375,-168 375,-174 369,-180 363,-180"/>
<text text-anchor="middle" x="344.5" y="-159.5" font-family="sans" font-size="10.00">csigwcmr</text>
</g>
<!-- 14&#45;&gt;4 -->
<g id="edge14" class="edge"><title>14&#45;&gt;4</title>
<path fill="none" stroke="grey" stroke-width="2" d="M375.123,-147.17C397.184,-137.207 427.363,-123.578 452.469,-112.24"/>
<polygon fill="grey" stroke="grey" stroke-width="2" points="454.142,-115.325 461.815,-108.019 451.261,-108.945 454.142,-115.325"/>
</g>
<!-- 14&#45;&gt;5 -->
<g id="edge16" class="edge"><title>14&#45;&gt;5</title>
<path fill="none" stroke="grey" stroke-width="2" d="M313.922,-143.876C297.426,-134.639 276.876,-123.131 259.164,-113.212"/>
<polygon fill="grey" stroke="grey" stroke-width="2" points="260.631,-110.022 250.196,-108.19 257.211,-116.13 260.631,-110.022"/>
</g>
<!-- 14&#45;&gt;6 -->
<g id="edge18" class="edge"><title>14&#45;&gt;6</title>
<path fill="none" stroke="grey" stroke-width="2" d="M348.208,-143.697C349.861,-135.983 351.847,-126.712 353.69,-118.112"/>
<polygon fill="grey" stroke="grey" stroke-width="2" points="357.162,-118.616 355.835,-108.104 350.317,-117.149 357.162,-118.616"/>
</g>
<!-- 14&#45;&gt;7 -->
<g id="edge21" class="edge"><title>14&#45;&gt;7</title>
<path fill="none" stroke="grey" stroke-width="2" d="M375.269,-147.161C378.355,-146.003 381.469,-144.925 384.5,-144 462.451,-120.226 487.203,-126.509 570.994,-107.991"/>
<polygon fill="grey" stroke="grey" stroke-width="2" points="571.971,-111.359 580.951,-105.737 570.425,-104.531 571.971,-111.359"/>
</g>
<!-- 14&#45;&gt;8 -->
<g id="edge23" class="edge"><title>14&#45;&gt;8</title>
<path fill="none" stroke="grey" stroke-width="2" d="M313.909,-153.241C273.592,-143.016 201.268,-124.673 145.541,-110.539"/>
<polygon fill="grey" stroke="grey" stroke-width="2" points="146.247,-107.108 135.693,-108.042 144.526,-113.893 146.247,-107.108"/>
</g>
<!-- 15&#45;&gt;10 -->
<g id="edge25" class="edge"><title>15&#45;&gt;10</title>
<path fill="none" stroke="grey" stroke-width="2" d="M696.219,-359.697C686.585,-351.05 674.771,-340.449 664.273,-331.027"/>
<polygon fill="grey" stroke="grey" stroke-width="2" points="666.339,-328.179 656.559,-324.104 661.664,-333.388 666.339,-328.179"/>
</g>
<!-- 16 -->
<g id="node17" class="node"><title>16</title>
<path fill="none" stroke="#d6d856" stroke-width="2" d="M868,-612C868,-612 731,-612 731,-612 725,-612 719,-606 719,-600 719,-600 719,-588 719,-588 719,-582 725,-576 731,-576 731,-576 868,-576 868,-576 874,-576 880,-582 880,-588 880,-588 880,-600 880,-600 880,-606 874,-612 868,-612"/>
<text text-anchor="middle" x="799.5" y="-591.5" font-family="sans" font-size="10.00">bismark_genome_preparation</text>
</g>
<!-- 16&#45;&gt;11 -->
<g id="edge27" class="edge"><title>16&#45;&gt;11</title>
<path fill="none" stroke="grey" stroke-width="2" d="M817.545,-575.697C826.562,-567.05 837.618,-556.449 847.443,-547.027"/>
<polygon fill="grey" stroke="grey" stroke-width="2" points="849.867,-549.552 854.663,-540.104 845.022,-544.499 849.867,-549.552"/>
</g>
<!-- 17 -->
<g id="node18" class="node"><title>17</title>
<path fill="none" stroke="#56d8c1" stroke-width="2" d="M982.5,-612C982.5,-612 910.5,-612 910.5,-612 904.5,-612 898.5,-606 898.5,-600 898.5,-600 898.5,-588 898.5,-588 898.5,-582 904.5,-576 910.5,-576 910.5,-576 982.5,-576 982.5,-576 988.5,-576 994.5,-582 994.5,-588 994.5,-588 994.5,-600 994.5,-600 994.5,-606 988.5,-612 982.5,-612"/>
<text text-anchor="middle" x="946.5" y="-591.5" font-family="sans" font-size="10.00">trimmomatic_pe</text>
</g>
<!-- 17&#45;&gt;11 -->
<g id="edge26" class="edge"><title>17&#45;&gt;11</title>
<path fill="none" stroke="grey" stroke-width="2" d="M928.208,-575.697C919.067,-567.05 907.86,-556.449 897.9,-547.027"/>
<polygon fill="grey" stroke="grey" stroke-width="2" points="900.252,-544.434 890.582,-540.104 895.441,-549.519 900.252,-544.434"/>
</g>
<!-- 18&#45;&gt;12 -->
<g id="edge28" class="edge"><title>18&#45;&gt;12</title>
<path fill="none" stroke="grey" stroke-width="2" d="M435.208,-215.697C436.861,-207.983 438.847,-198.712 440.69,-190.112"/>
<polygon fill="grey" stroke="grey" stroke-width="2" points="444.162,-190.616 442.835,-180.104 437.317,-189.149 444.162,-190.616"/>
</g>
<!-- 18&#45;&gt;14 -->
<g id="edge29" class="edge"><title>18&#45;&gt;14</title>
<path fill="none" stroke="grey" stroke-width="2" d="M409.994,-215.697C399.037,-206.881 385.554,-196.032 373.675,-186.474"/>
<polygon fill="grey" stroke="grey" stroke-width="2" points="375.744,-183.646 365.758,-180.104 371.355,-189.1 375.744,-183.646"/>
</g>
</g>
</svg>
